<svg xmlns="http://www.w3.org/2000/svg" viewBox="0 0 500 500"><g id="freepik--background-simple--inject-171"><path d="M332.3,54.7s-77-27.37-152.56,16.21S66,201,33.29,270.32s-13.9,139.8,43.79,171.94S174,427,254.93,424.71,357.62,434,424.78,388.26s79.29-153.69,26.32-233.58S332.3,54.7,332.3,54.7Z" style="fill:#25528E"></path><path d="M332.3,54.7s-77-27.37-152.56,16.21S66,201,33.29,270.32s-13.9,139.8,43.79,171.94S174,427,254.93,424.71,357.62,434,424.78,388.26s79.29-153.69,26.32-233.58S332.3,54.7,332.3,54.7Z" style="fill:#fff;opacity:0.7000000000000001"></path></g><g id="freepik--Floor--inject-171"><line x1="9.09" y1="463.53" x2="490" y2="463.53" style="fill:none;stroke:#263238;stroke-linecap:round;stroke-linejoin:round"></line></g><g id="freepik--Window--inject-171"><path d="M417.28,40.05H421a62,62,0,0,1,62,62V333.53a0,0,0,0,1,0,0H355.28a0,0,0,0,1,0,0V102.05A62,62,0,0,1,417.28,40.05Z" style="fill:none;stroke:#263238;stroke-linecap:round;stroke-linejoin:round"></path><path d="M369.7,332.84V106a49.43,49.43,0,0,1,49.43-49.43h0A49.42,49.42,0,0,1,468.55,106V332.84" style="fill:none;stroke:#263238;stroke-linecap:round;stroke-linejoin:round"></path><line x1="419.13" y1="40.05" x2="419.13" y2="333.18" style="fill:none;stroke:#263238;stroke-linecap:round;stroke-linejoin:round"></line><line x1="355.97" y1="96.52" x2="482.11" y2="96.52" style="fill:none;stroke:#263238;stroke-linecap:round;stroke-linejoin:round"></line><line x1="355.97" y1="136.33" x2="482.11" y2="136.33" style="fill:none;stroke:#263238;stroke-linecap:round;stroke-linejoin:round"></line><line x1="355.97" y1="176.15" x2="482.11" y2="176.15" style="fill:none;stroke:#263238;stroke-linecap:round;stroke-linejoin:round"></line><line x1="355.97" y1="215.97" x2="482.11" y2="215.97" style="fill:none;stroke:#263238;stroke-linecap:round;stroke-linejoin:round"></line><line x1="355.97" y1="255.78" x2="482.11" y2="255.78" style="fill:none;stroke:#263238;stroke-linecap:round;stroke-linejoin:round"></line><line x1="355.97" y1="295.6" x2="482.11" y2="295.6" style="fill:none;stroke:#263238;stroke-linecap:round;stroke-linejoin:round"></line><line x1="372.84" y1="59.98" x2="384.28" y2="70.4" style="fill:none;stroke:#263238;stroke-linecap:round;stroke-linejoin:round"></line><line x1="464.94" y1="59.98" x2="453.5" y2="70.4" style="fill:none;stroke:#263238;stroke-linecap:round;stroke-linejoin:round"></line><line x1="327.5" y1="257.25" x2="352.18" y2="257.25" style="fill:none;stroke:#263238;stroke-linecap:round;stroke-linejoin:round"></line><polyline points="328 272 341 272 341 349.67 407 349.67 407 452 327.42 452" style="fill:none;stroke:#263238;stroke-linecap:round;stroke-linejoin:round"></polyline><polyline points="491.41 349.67 423.03 349.67 423.03 452 486 452" style="fill:none;stroke:#263238;stroke-linecap:round;stroke-linejoin:round"></polyline></g><g id="freepik--Door--inject-171"><rect x="154" y="27.53" width="173.42" height="436" style="fill:none;stroke:#263238;stroke-miterlimit:10"></rect><circle cx="317.73" cy="242.96" r="7.36" transform="translate(-24.66 449.72) rotate(-68.53)" style="fill:none;stroke:#263238;stroke-miterlimit:10"></circle><path d="M320.68,243a2.95,2.95,0,1,0-2.95,2.95A2.94,2.94,0,0,0,320.68,243Z" style="fill:none;stroke:#263238;stroke-miterlimit:10"></path><rect x="170" y="47.1" width="64" height="72.43" style="fill:none;stroke:#263238;stroke-miterlimit:10"></rect><rect x="177.39" y="55.47" width="49.22" height="55.7" style="fill:none;stroke:#263238;stroke-miterlimit:10"></rect><line x1="170" y1="47.1" x2="177.39" y2="55.47" style="fill:none;stroke:#263238;stroke-miterlimit:10"></line><line x1="177.39" y1="111.17" x2="170" y2="119.53" style="fill:none;stroke:#263238;stroke-miterlimit:10"></line><line x1="226.61" y1="111.17" x2="234" y2="119.53" style="fill:none;stroke:#263238;stroke-miterlimit:10"></line><line x1="234" y1="47.1" x2="226.61" y2="55.47" style="fill:none;stroke:#263238;stroke-miterlimit:10"></line><rect x="170" y="126.1" width="64" height="72.43" style="fill:none;stroke:#263238;stroke-miterlimit:10"></rect><rect x="177.39" y="134.47" width="49.22" height="55.7" style="fill:none;stroke:#263238;stroke-miterlimit:10"></rect><line x1="170" y1="126.1" x2="177.39" y2="134.47" style="fill:none;stroke:#263238;stroke-miterlimit:10"></line><line x1="177.39" y1="190.17" x2="170" y2="198.53" style="fill:none;stroke:#263238;stroke-miterlimit:10"></line><line x1="226.61" y1="190.17" x2="234" y2="198.53" style="fill:none;stroke:#263238;stroke-miterlimit:10"></line><line x1="234" y1="126.1" x2="226.61" y2="134.47" style="fill:none;stroke:#263238;stroke-miterlimit:10"></line><rect x="170" y="205.1" width="64" height="72.43" style="fill:none;stroke:#263238;stroke-miterlimit:10"></rect><rect x="177.39" y="213.47" width="49.22" height="55.7" style="fill:none;stroke:#263238;stroke-miterlimit:10"></rect><line x1="170" y1="205.1" x2="177.39" y2="213.47" style="fill:none;stroke:#263238;stroke-miterlimit:10"></line><line x1="177.39" y1="269.17" x2="170" y2="277.53" style="fill:none;stroke:#263238;stroke-miterlimit:10"></line><line x1="226.61" y1="269.17" x2="234" y2="277.53" style="fill:none;stroke:#263238;stroke-miterlimit:10"></line><line x1="234" y1="205.1" x2="226.61" y2="213.47" style="fill:none;stroke:#263238;stroke-miterlimit:10"></line><rect x="170" y="284.1" width="64" height="72.43" style="fill:none;stroke:#263238;stroke-miterlimit:10"></rect><rect x="177.39" y="292.47" width="49.22" height="55.7" style="fill:none;stroke:#263238;stroke-miterlimit:10"></rect><line x1="170" y1="284.1" x2="177.39" y2="292.47" style="fill:none;stroke:#263238;stroke-miterlimit:10"></line><line x1="177.39" y1="348.17" x2="170" y2="356.53" style="fill:none;stroke:#263238;stroke-miterlimit:10"></line><line x1="226.61" y1="348.17" x2="234" y2="356.53" style="fill:none;stroke:#263238;stroke-miterlimit:10"></line><line x1="234" y1="284.1" x2="226.61" y2="292.47" style="fill:none;stroke:#263238;stroke-miterlimit:10"></line><rect x="170" y="371.53" width="64" height="72.43" style="fill:none;stroke:#263238;stroke-miterlimit:10"></rect><rect x="177.39" y="379.9" width="49.22" height="55.7" style="fill:none;stroke:#263238;stroke-miterlimit:10"></rect><line x1="170" y1="371.53" x2="177.39" y2="379.9" style="fill:none;stroke:#263238;stroke-miterlimit:10"></line><line x1="177.39" y1="435.6" x2="170" y2="443.96" style="fill:none;stroke:#263238;stroke-miterlimit:10"></line><line x1="226.61" y1="435.6" x2="234" y2="443.96" style="fill:none;stroke:#263238;stroke-miterlimit:10"></line><line x1="234" y1="371.53" x2="226.61" y2="379.9" style="fill:none;stroke:#263238;stroke-miterlimit:10"></line><rect x="243" y="47.1" width="64" height="72.43" style="fill:none;stroke:#263238;stroke-miterlimit:10"></rect><rect x="250.39" y="55.47" width="49.22" height="55.7" style="fill:none;stroke:#263238;stroke-miterlimit:10"></rect><line x1="243" y1="47.1" x2="250.39" y2="55.47" style="fill:none;stroke:#263238;stroke-miterlimit:10"></line><line x1="250.39" y1="111.17" x2="243" y2="119.53" style="fill:none;stroke:#263238;stroke-miterlimit:10"></line><line x1="299.61" y1="111.17" x2="307" y2="119.53" style="fill:none;stroke:#263238;stroke-miterlimit:10"></line><line x1="307" y1="47.1" x2="299.61" y2="55.47" style="fill:none;stroke:#263238;stroke-miterlimit:10"></line><rect x="243" y="126.1" width="64" height="72.43" style="fill:none;stroke:#263238;stroke-miterlimit:10"></rect><rect x="250.39" y="134.47" width="49.22" height="55.7" style="fill:none;stroke:#263238;stroke-miterlimit:10"></rect><line x1="243" y1="126.1" x2="250.39" y2="134.47" style="fill:none;stroke:#263238;stroke-miterlimit:10"></line><line x1="250.39" y1="190.17" x2="243" y2="198.53" style="fill:none;stroke:#263238;stroke-miterlimit:10"></line><line x1="299.61" y1="190.17" x2="307" y2="198.53" style="fill:none;stroke:#263238;stroke-miterlimit:10"></line><line x1="307" y1="126.1" x2="299.61" y2="134.47" style="fill:none;stroke:#263238;stroke-miterlimit:10"></line><rect x="243" y="205.1" width="64" height="72.43" style="fill:none;stroke:#263238;stroke-miterlimit:10"></rect><rect x="250.39" y="213.47" width="49.22" height="55.7" style="fill:none;stroke:#263238;stroke-miterlimit:10"></rect><line x1="243" y1="205.1" x2="250.39" y2="213.47" style="fill:none;stroke:#263238;stroke-miterlimit:10"></line><line x1="250.39" y1="269.17" x2="243" y2="277.53" style="fill:none;stroke:#263238;stroke-miterlimit:10"></line><line x1="299.61" y1="269.17" x2="307" y2="277.53" style="fill:none;stroke:#263238;stroke-miterlimit:10"></line><line x1="307" y1="205.1" x2="299.61" y2="213.47" style="fill:none;stroke:#263238;stroke-miterlimit:10"></line><rect x="243" y="284.1" width="64" height="72.43" style="fill:none;stroke:#263238;stroke-miterlimit:10"></rect><rect x="250.39" y="292.47" width="49.22" height="55.7" style="fill:none;stroke:#263238;stroke-miterlimit:10"></rect><line x1="243" y1="284.1" x2="250.39" y2="292.47" style="fill:none;stroke:#263238;stroke-miterlimit:10"></line><line x1="250.39" y1="348.17" x2="243" y2="356.53" style="fill:none;stroke:#263238;stroke-miterlimit:10"></line><line x1="299.61" y1="348.17" x2="307" y2="356.53" style="fill:none;stroke:#263238;stroke-miterlimit:10"></line><line x1="307" y1="284.1" x2="299.61" y2="292.47" style="fill:none;stroke:#263238;stroke-miterlimit:10"></line><rect x="243" y="371.53" width="64" height="72.43" style="fill:none;stroke:#263238;stroke-miterlimit:10"></rect><rect x="250.39" y="379.9" width="49.22" height="55.7" style="fill:none;stroke:#263238;stroke-miterlimit:10"></rect><line x1="243" y1="371.53" x2="250.39" y2="379.9" style="fill:none;stroke:#263238;stroke-miterlimit:10"></line><line x1="250.39" y1="435.6" x2="243" y2="443.96" style="fill:none;stroke:#263238;stroke-miterlimit:10"></line><line x1="299.61" y1="435.6" x2="307" y2="443.96" style="fill:none;stroke:#263238;stroke-miterlimit:10"></line><line x1="307" y1="371.53" x2="299.61" y2="379.9" style="fill:none;stroke:#263238;stroke-miterlimit:10"></line><line x1="18.65" y1="27.53" x2="12" y2="27.53" style="fill:none;stroke:#263238;stroke-miterlimit:10"></line><line x1="154" y1="27.53" x2="24.62" y2="27.53" style="fill:none;stroke:#263238;stroke-miterlimit:10"></line></g><g id="freepik--Lantern--inject-171"><polygon points="124.5 109.77 96.33 109.77 90.3 60.84 130.53 60.84 124.5 109.77" style="fill:none;stroke:#263238;stroke-miterlimit:10;stroke-width:2px"></polygon><polygon points="136.94 60.71 83.88 60.71 101.57 52.55 119.26 52.55 136.94 60.71" style="fill:#263238;stroke:#263238;stroke-miterlimit:10"></polygon><line x1="101.06" y1="109.57" x2="97.05" y2="61.21" style="fill:none;stroke:#263238;stroke-miterlimit:10;stroke-width:2px"></line><line x1="120.34" y1="109.57" x2="124.6" y2="61.21" style="fill:none;stroke:#263238;stroke-miterlimit:10;stroke-width:2px"></line><polygon points="95.73 104.86 96.33 109.77 124.5 109.77 125.1 104.86 95.73 104.86" style="fill:#263238;stroke:#263238;stroke-miterlimit:10"></polygon><rect x="105.74" y="42.35" width="9.75" height="11.02" style="fill:#263238;stroke:#263238;stroke-miterlimit:10"></rect><rect x="114" y="44.05" width="39.72" height="2.12" style="fill:#263238;stroke:#263238;stroke-miterlimit:10"></rect></g><g id="freepik--Sign--inject-171"><rect x="33.56" y="296.38" width="88.65" height="80.53" style="fill:none;stroke:#263238;stroke-miterlimit:10"></rect><rect x="43.03" y="301.82" width="69.73" height="69.64" style="fill:#25528E"></rect><line x1="33.56" y1="293.53" x2="33.56" y2="463.5" style="fill:none;stroke:#263238;stroke-linejoin:round;stroke-width:2px"></line><line x1="122.53" y1="293.53" x2="122.53" y2="463.5" style="fill:none;stroke:#263238;stroke-linejoin:round;stroke-width:2px"></line><path d="M60.35,318.72h5.87v4.13H60.35v11.94H55.81V305.87h12V310H60.35Z" style="fill:#fff"></path><path d="M69.65,312.81c0-4.63,2.44-7.27,6.9-7.27s6.9,2.64,6.9,7.27v15c0,4.63-2.44,7.27-6.9,7.27s-6.9-2.64-6.9-7.27Zm4.54,15.33c0,2.06.91,2.85,2.36,2.85s2.35-.79,2.35-2.85V312.52c0-2.07-.9-2.85-2.35-2.85s-2.36.78-2.36,2.85Z" style="fill:#fff"></path><path d="M95.88,334.79a9.06,9.06,0,0,1-.41-3.55v-4.55c0-2.68-.91-3.67-3-3.67H90.93v11.77H86.38V305.87h6.86c4.71,0,6.73,2.19,6.73,6.65v2.27c0,3-1,4.92-3,5.87,2.27.95,3,3.14,3,6.16v4.46a8.59,8.59,0,0,0,.49,3.51ZM90.93,310v8.88H92.7c1.7,0,2.73-.74,2.73-3.05V313c0-2.07-.7-3-2.31-3Z" style="fill:#fff"></path><path d="M54.78,338.93c4.42,0,6.69,2.64,6.69,7.27v.91h-4.3v-1.2c0-2.07-.82-2.85-2.27-2.85s-2.27.78-2.27,2.85c0,5.95,8.88,7.06,8.88,15.33,0,4.63-2.31,7.27-6.77,7.27S48,365.87,48,361.24v-1.78h4.3v2.07c0,2.06.9,2.81,2.35,2.81s2.36-.75,2.36-2.81c0-5.95-8.89-7.07-8.89-15.33C48.08,341.57,50.36,338.93,54.78,338.93Z" style="fill:#fff"></path><path d="M78.82,368.18H74.24l-.79-5.25H67.87l-.78,5.25H62.91l4.63-28.92h6.65ZM68.45,359h4.38l-2.19-14.63Z" style="fill:#fff"></path><path d="M80.93,339.26h4.54v24.79H93v4.13h-12Z" style="fill:#fff"></path><path d="M99.48,351.45h6.24v4.13H99.48v8.47h7.85v4.13H94.93V339.26h12.4v4.13H99.48Z" style="fill:#fff"></path></g><g id="freepik--Plant--inject-171"><path d="M472.61,260.93s0-4.68-6.56-11.24-10.77-10.3-10.77-10.3-3.28,10.77,2.81,17.32a115.23,115.23,0,0,0,14.52,12.65Z" style="fill:#25528E"></path><path d="M463.09,290.17s0-4.68-6.55-11.24-10.77-10.3-10.77-10.3-3.28,10.77,2.81,17.33a115.15,115.15,0,0,0,14.51,12.64Z" style="fill:#25528E"></path><path d="M472.19,268.9s.5-4.65,7.71-10.48,11.8-9.1,11.8-9.1,2.12,11.05-4.63,16.93a114.93,114.93,0,0,1-15.77,11Z" style="fill:#25528E"></path><path d="M460.7,303.44s1-4.58,8.77-9.62S482.15,286,482.15,286s1,11.21-6.37,16.35a115.76,115.76,0,0,1-16.85,9.32Z" style="fill:#25528E"></path><path d="M462.86,341.09s0-4.68,6.56-11.24,10.77-10.3,10.77-10.3,3.27,10.77-2.81,17.33a115.66,115.66,0,0,1-14.52,12.64Z" style="fill:#25528E"></path><path d="M462.75,350.28s.67-4.63-4.89-12-9.2-11.73-9.2-11.73-4.77,10.19.32,17.55a115.78,115.78,0,0,0,12.57,14.57Z" style="fill:#25528E"></path><path d="M456.29,377.52s0-4.68,6.55-11.24S473.61,356,473.61,356s3.28,10.77-2.81,17.33A115.15,115.15,0,0,1,456.29,386Z" style="fill:#25528E"></path><path d="M460.67,402.21s-1.19-4.53,3.49-12.53S472,377,472,377s5.9,9.59,1.67,17.47a115.73,115.73,0,0,1-10.84,15.91Z" style="fill:#25528E"></path><path d="M473.2,259.73a131.26,131.26,0,0,1-1.8,14.54c-2.59,13.39-9.07,22-11.66,34.12s4.85,27.67,2.86,43.2-8,24.17-6.31,34.53,11,40.54,11,40.54" style="fill:none;stroke:#263238;stroke-linecap:round;stroke-linejoin:round"></path><line x1="472.13" y1="272.02" x2="479.19" y2="266.59" style="fill:none;stroke:#263238;stroke-linecap:round;stroke-linejoin:round"></line><line x1="472.46" y1="265.77" x2="469.5" y2="260.52" style="fill:none;stroke:#263238;stroke-linecap:round;stroke-linejoin:round"></line><path d="M460.14,307.83s5.91-4.44,12-8.87" style="fill:none;stroke:#263238;stroke-linecap:round;stroke-linejoin:round"></path><path d="M463.09,298.6s-4.93-9.66-10.51-16.07" style="fill:none;stroke:#263238;stroke-linecap:round;stroke-linejoin:round"></path><path d="M463.09,347.75a73.29,73.29,0,0,1,12.65-16.92" style="fill:none;stroke:#263238;stroke-linecap:round;stroke-linejoin:round"></path><path d="M461.94,354.32a82.27,82.27,0,0,0-6.4-12.15c-3.45-5.1-4-5.75-4-5.75" style="fill:none;stroke:#263238;stroke-linecap:round;stroke-linejoin:round"></path><path d="M456.29,386.12a79.5,79.5,0,0,1,5.32-10.77,69.29,69.29,0,0,1,6.9-9" style="fill:none;stroke:#263238;stroke-linecap:round;stroke-linejoin:round"></path><path d="M462.8,410.37A20.1,20.1,0,0,1,464.57,400c2.47-4.77,5.26-11,6.41-13.48" style="fill:none;stroke:#263238;stroke-linecap:round;stroke-linejoin:round"></path><path d="M429.68,323.48s-.51-2.93,2.89-7.76,5.63-7.63,5.63-7.63,3.23,6.4.12,11.17a72.43,72.43,0,0,1-7.73,9.51Z" style="fill:#25528E"></path><path d="M438.82,340.79s-.51-2.94,2.89-7.76,5.64-7.63,5.64-7.63,3.22,6.4.11,11.17a72.75,72.75,0,0,1-7.73,9.5Z" style="fill:#25528E"></path><path d="M430.8,328.44s-.81-2.87-6-5.74-8.38-4.43-8.38-4.43-.13,7.17,4.73,10.12a73.62,73.62,0,0,0,11.09,5.21Z" style="fill:#25528E"></path><path d="M441.76,348.85s-1.11-2.77-6.54-5.08-8.81-3.52-8.81-3.52.63,7.13,5.78,9.56a73.43,73.43,0,0,0,11.57,4Z" style="fill:#25528E"></path><path d="M444.49,372.69s-.51-2.93-5.33-6.33-7.87-5.29-7.87-5.29-.89,7.11,3.64,10.56A73.16,73.16,0,0,0,445.41,378Z" style="fill:#25528E"></path><path d="M445.56,378.44s-.92-2.83,1.76-8.09,4.49-8.35,4.49-8.35,4.1,5.88,1.71,11a74.24,74.24,0,0,1-6.3,10.51Z" style="fill:#25528E"></path><path d="M453.79,402.13s.34-3,5-6.63,7.55-5.73,7.55-5.73,1.29,7.05-3,10.75a73.21,73.21,0,0,1-10.1,6.94Z" style="fill:#25528E"></path><path d="M452.57,394.82s-.51-2.93-5.33-6.33-7.87-5.29-7.87-5.29-.89,7.11,3.64,10.56a73.34,73.34,0,0,0,10.47,6.35Z" style="fill:#25528E"></path><path d="M452.5,410.78s.26-3-3.55-7.48-6.27-7.11-6.27-7.11-2.66,6.66.85,11.14a73.3,73.3,0,0,0,8.52,8.8Z" style="fill:#25528E"></path><path d="M429.18,322.79a84.39,84.39,0,0,0,2.7,8.93c3.08,8.11,8.08,12.82,11,20.13s0,17.87,2.9,27.4,7.66,14.28,7.7,21-2.6,25.27-2.6,25.27" style="fill:none;stroke:#263238;stroke-linecap:round;stroke-linejoin:round"></path><line x1="431.18" y1="330.38" x2="426.16" y2="327.75" style="fill:none;stroke:#263238;stroke-linecap:round;stroke-linejoin:round"></line><line x1="430.3" y1="326.5" x2="431.58" y2="322.89" style="fill:none;stroke:#263238;stroke-linecap:round;stroke-linejoin:round"></line><path d="M442.59,351.54s-4.19-2.14-8.48-4.26" style="fill:none;stroke:#263238;stroke-linecap:round;stroke-linejoin:round"></path><path d="M439.73,346.07a60.76,60.76,0,0,1,4.85-11.22" style="fill:none;stroke:#263238;stroke-linecap:round;stroke-linejoin:round"></path><path d="M445.07,376.9a46.65,46.65,0,0,0-9.77-9.24" style="fill:none;stroke:#263238;stroke-linecap:round;stroke-linejoin:round"></path><path d="M446.5,380.89a52.88,52.88,0,0,1,2.7-8.32c1.61-3.57,1.85-4,1.85-4" style="fill:none;stroke:#263238;stroke-linecap:round;stroke-linejoin:round"></path><path d="M453.28,405.29a43.39,43.39,0,0,1,5.39-5.6,29.5,29.5,0,0,0,3.51-3.05" style="fill:none;stroke:#263238;stroke-linecap:round;stroke-linejoin:round"></path><path d="M453.5,400.22A49.24,49.24,0,0,0,449,394a44.24,44.24,0,0,0-5.3-4.91" style="fill:none;stroke:#263238;stroke-linecap:round;stroke-linejoin:round"></path><path d="M452.05,416.13a12.7,12.7,0,0,0-2.24-6.31c-2.06-2.72-4.49-6.34-5.48-7.76" style="fill:none;stroke:#263238;stroke-linecap:round;stroke-linejoin:round"></path><path d="M467.09,462.73H448.21c-.82,0-1.48-1-1.48-2.16L442,425.76h31.22l-4.68,34.81C468.58,461.76,467.92,462.73,467.09,462.73Z" style="fill:#263238;stroke:#263238;stroke-linecap:round;stroke-linejoin:round"></path><line x1="443.27" y1="431.82" x2="465.74" y2="431.82" style="fill:none;stroke:#fff;stroke-linecap:round;stroke-linejoin:round"></line><line x1="467.86" y1="431.82" x2="471.56" y2="431.82" style="fill:none;stroke:#fff;stroke-linecap:round;stroke-linejoin:round"></line></g><g id="freepik--character-3--inject-171"><path d="M293.31,444.31s-5.27,6.58-8.43,8.16-12.11,4.74-12.38,7.11-.26,3.95-.26,3.95h41.62s.79-1,.52-4.74-2.89-15.27-2.89-15.27Z" style="fill:#fff;stroke:#263238;stroke-linecap:round;stroke-linejoin:round"></path><path d="M314.43,460.37h-42c-.18,1.93-.18,3.16-.18,3.16h41.62S314.41,462.79,314.43,460.37Z" style="fill:#fff;stroke:#263238;stroke-linecap:round;stroke-linejoin:round"></path><path d="M359.42,462.22s-.29-7.32,0-10.54a46.66,46.66,0,0,0-.26-7.9h17.38s1.85,7.11,3.69,9.74,3.95,6.33,3.95,7.64v2.37H359.69Z" style="fill:#fff;stroke:#263238;stroke-linecap:round;stroke-linejoin:round"></path><path d="M384.18,461.16a2.2,2.2,0,0,0-.08-.52H359.37l.05,1.58.27,1.31h24.49Z" style="fill:#fff;stroke:#263238;stroke-linecap:round;stroke-linejoin:round"></path><path d="M301.22,264.74s-7.38,42.27-8.36,63.91-2.46,47.19-.49,59.48,1.47,45.72,1.47,45.72-4.91,3.44-3.44,7.87l1.48,4.42,21.38,5.16a53.24,53.24,0,0,0,1.23-8.6c.49-5.9-1-7.87-1-11.31s11.05-69.77,11.54-71.73,5.67-56.09,5.67-56.09l3.14,10.93s9.71,50.23,12.66,65,10.25,44,10.25,48,.49,7.37.49,10.81-1.47,2.46,0,5.9,2.46,6.4,2.46,6.4l19,.51a52.66,52.66,0,0,1-.86-12.31c.49-5.41,0-13.77.49-21.63s3.44-31,1.48-42.28-3.94-9.84-3.94-20.16V291.77c0-8.84-4.91-27.53-4.91-27.53s-34.91,3.45-47.2,2.46S301.22,264.74,301.22,264.74Z" style="fill:#263238;stroke:#263238;stroke-linecap:round;stroke-linejoin:round"></path><path d="M314.06,267.54a56.54,56.54,0,0,0,36.92.32l-1-5.18s-19.76.32-26.24-.65-10-1.29-10-1.29" style="fill:#5e5e5e;stroke:#263238;stroke-linecap:round;stroke-linejoin:round"></path><rect x="326.39" y="266.18" width="6.62" height="3.91" transform="translate(24.83 -27.93) rotate(5.04)" style="fill:#fff;stroke:#263238;stroke-linecap:round;stroke-linejoin:round"></rect><path d="M340,161.94s-13.93,3.24-18.79,5.18-5.83,40.49-5.83,54.75-3.89,38.54-2.91,39.84,6.47,4.53,18.78,4.53a91.31,91.31,0,0,0,20.09-1.94s-5.19-22,1-43.08,9.39-48.59,7.12-53.13S340,161.94,340,161.94Z" style="fill:#25528E;stroke:#263238;stroke-linecap:round;stroke-linejoin:round"></path><path d="M333.17,188.05s-5.06,42.56-5.06,75" style="fill:none;stroke:#263238;stroke-linecap:round;stroke-linejoin:round"></path><path d="M335.92,191.45a1,1,0,1,1-1-1A1,1,0,0,1,335.92,191.45Z" style="fill:#263238"></path><path d="M334.34,206a1,1,0,1,1-1-1A1,1,0,0,1,334.34,206Z" style="fill:#263238"></path><path d="M333.05,222.07a1,1,0,1,1-1-1A1,1,0,0,1,333.05,222.07Z" style="fill:#263238"></path><circle cx="331.32" cy="238.03" r="1.01" style="fill:#263238"></circle><circle cx="329.88" cy="254.56" r="1.01" style="fill:#263238"></circle><path d="M297.54,175.87s-1.26,9.76-1.26,14.75-11.45,28.95-13.11,32.27A71.17,71.17,0,0,0,278,235c-2.49,7.2-2,16.47-.61,19s9.21,2.63,14.47-.42,10.52-13.57,11.91-27.14.27-39.62-.28-44.6S300.74,174.69,297.54,175.87Z" style="fill:#5e5e5e;stroke:#263238;stroke-linecap:round;stroke-linejoin:round"></path><path d="M287.13,225.73s9.83,2.63,10.16,13.11" style="fill:none;stroke:#263238;stroke-linecap:round;stroke-linejoin:round"></path><path d="M285.49,222.13s2.29-2.95,6.55.33" style="fill:none;stroke:#263238;stroke-linecap:round;stroke-linejoin:round"></path><path d="M325.72,181.38s-5.51,46.32-6.81,64.13-6.47,41.14-9.39,47.62-16.84,15.22-16.84,15.22,2.59-23,4.21-38.54,3.89-35,3.89-45-3.57-45.35-3.24-48.91,27.21-11.66,27.21-11.66A44.71,44.71,0,0,1,325.72,181.38Z" style="fill:#5e5e5e;stroke:#263238;stroke-linecap:round;stroke-linejoin:round"></path><path d="M320,233.71c2.05-21,5.77-52.33,5.77-52.33a44.71,44.71,0,0,0-1-17.17s-1.41.42-3.57,1.11l-10,18.16,9.55,3.18-9.15,6.77Z" style="fill:#263238;stroke:#263238;stroke-linecap:round;stroke-linejoin:round"></path><path d="M433.79,226.15s2.54-11.6,1.82-14.86-8-.36-8,3.26S431.62,224.34,433.79,226.15Z" style="fill:#263238;stroke:#263238;stroke-linecap:round;stroke-linejoin:round"></path><path d="M429.45,206.94s4-3.26,5.43-5.43a40,40,0,0,1,4.35-5.44c1.09-1.09,7.25-2.54,9.06-5.43s4.35-3.27,4.35-.37-5.08,6.16-5.08,6.16,8,2.18,9.79,2.18,11.23-2.18,11.23,0-5.8,9.06-9.06,10.14-23.19,5.08-23.19,5.08l-5.8,6.16S427.27,213.1,429.45,206.94Z" style="fill:#fff;stroke:#263238;stroke-linecap:round;stroke-linejoin:round"></path><path d="M467.45,198.59s1.61-5.11.44-4.82-3.51,5.11-3.8,7S467.45,198.59,467.45,198.59Z" style="fill:#fff;stroke:#263238;stroke-linecap:round;stroke-linejoin:round"></path><path d="M463.72,205.88a23.26,23.26,0,0,0,5-6.49c1.77-3.7.6-3.64-.64-2.71s-2.67,4.35-3.66,5.88-2,2.93-2,2.93" style="fill:#fff;stroke:#263238;stroke-linecap:round;stroke-linejoin:round"></path><path d="M460.21,207.68a9.89,9.89,0,0,0,5.63-4.85c1.9-3.8,1.9-5,.59-4.24s-2.34,2-3.65,4.09a10.17,10.17,0,0,1-3.37,3.21" style="fill:#fff;stroke:#263238;stroke-linecap:round;stroke-linejoin:round"></path><path d="M435.48,210.15s2.47-4.33,3.71-5.26,16.69,1.24,16.69,1.24,7-7.14,7.92-6.52-2.9,7-3.59,8.07-13.6,3.4-13.6,3.4" style="fill:#fff;stroke:#263238;stroke-linecap:round;stroke-linejoin:round"></path><path d="M386,173.24s4.35,22.47,7.25,30.8,5.07,14.86,5.07,14.86a1.91,1.91,0,0,1,2.54,1.45l.72,2.17,28.63-17.75a87.75,87.75,0,0,0,.73,11.59,72.26,72.26,0,0,0,2.89,9.79s-18.11,14.49-25,19.2-17,7.61-19.57,7.25-16.67-23.55-16.67-23.55,5.44-31.53,6.16-42S384.15,172.16,386,173.24Z" style="fill:#5e5e5e;stroke:#263238;stroke-linecap:round;stroke-linejoin:round"></path><path d="M401.54,222.52s-4,4.2-4,8.79" style="fill:none;stroke:#263238;stroke-linecap:round;stroke-linejoin:round"></path><path d="M398.28,218.9s-6.28,6.51-7.59,14" style="fill:none;stroke:#263238;stroke-linecap:round;stroke-linejoin:round"></path><path d="M380.14,198.54s-7.45,45-5.83,55.07S391.8,300.9,391.8,300.9c-28,10.36-36,5.19-39.19,2.8-2.09-1.57-6.81-31.3-10.05-46.85s-1-31.1,3.89-49.56,6.48-44.7,6.48-44.7,13.6,6.8,21.7,7.77,10.36.33,11.34,4.54-1.62,11.66-1.62,12.63" style="fill:#5e5e5e;stroke:#263238;stroke-linecap:round;stroke-linejoin:round"></path><path d="M348.63,217.32C353.8,206.57,365,189.05,365,189.05l-10.35-4,11.94-4-3.8-14.18c-5.34-2.09-9.81-4.32-9.81-4.32s-1.62,26.24-6.48,44.7c-2.75,10.46-4.67,20-5.23,29.1A155.5,155.5,0,0,1,348.63,217.32Z" style="fill:#263238;stroke:#263238;stroke-linecap:round;stroke-linejoin:round"></path><polyline points="353.78 265.33 375.53 259.44 376.27 263.12 362.63 266.81" style="fill:none;stroke:#263238;stroke-linecap:round;stroke-linejoin:round"></polyline><path d="M327.79,165.65a18.37,18.37,0,0,0-4.93,10.25c-.67,4.77-.7,9.85-3.23,13.95,5.84.7,9.43-8.13,15.29-7.65,2.65.22,4.68,2.32,6.77,4a24.05,24.05,0,0,0,6,3.52,1.27,1.27,0,0,0,2-1.07q1.49-6.1,2.95-12.2c1.17-4.82,2.18-10.43-.9-14.33-2.47-3.12-7-4-10.89-3.29A25.26,25.26,0,0,0,327.79,165.65Z" style="fill:#25528E;stroke:#263238;stroke-linecap:round;stroke-linejoin:round"></path><path d="M316,118.21s-1.94,6.48-1.62,9.39.32,4.22-1,4.86S307.9,136,308.23,138s3.88,4.86,3.88,4.86a84.59,84.59,0,0,0,.65,10.36c.65,4.22,2.59,4.86,3.56,5.19s5.83,0,5.83,0,3.24,12,6.48,18.78,4.21,10.05,5.51,8.1,12.63-15.87,14.25-22S350.33,148,350.33,148s6.48-9.72-4.21-22.35-18.78-13.6-23-13S316,118.21,316,118.21Z" style="fill:#fff;stroke:#263238;stroke-linecap:round;stroke-linejoin:round"></path><path d="M317.94,109.47s-12.95-.33-11.66,6.8,21.7,1.62,21.7,1.62-3.88,6.15-.64,8.1,6.15,1.61,6.15,2.59-1.62,2.59,1.3,3.88,6.8,1,7.12,4.21-4.86,9.4-2.59,11.34,10.69,3.24,12.63.65,8.75-8.1,10.69-22.67-4.21-21.38-10.36-23.65-5.51,3.89-5.51,3.89-15.87-8.75-25.91-5.51S317.94,109.47,317.94,109.47Z" style="fill:#263238;stroke:#263238;stroke-linecap:round;stroke-linejoin:round"></path><path d="M334.14,135.38s2.27-8.1,6.48-6.8,3.24,9.71,1,12.63a5.79,5.79,0,0,1-5.83,1.94s-1.94,5.83-6.8,8.1l-4.86,2.27" style="fill:#fff;stroke:#263238;stroke-linecap:round;stroke-linejoin:round"></path><path d="M316,127.6s2.91-2.91,3.89,1" style="fill:none;stroke:#263238;stroke-linecap:round;stroke-linejoin:round"></path><path d="M317.94,133.11c0,1.43-.36,2.59-.81,2.59s-.81-1.16-.81-2.59.37-2.59.81-2.59S317.94,131.68,317.94,133.11Z" style="fill:#263238"></path><path d="M286.58,262.37s6.09-5.26,8-10.53-3-9.14-6.09-6.37S286.58,262.37,286.58,262.37Z" style="fill:#fff;stroke:#263238;stroke-linecap:round;stroke-linejoin:round"></path><polygon points="293.78 239.35 318.44 236.31 318.99 262.63 298.21 262.63 291.84 241.57 293.78 239.35" style="fill:#263238;stroke:#263238;stroke-linecap:round;stroke-linejoin:round"></polygon><path d="M289.07,234.09s10.25,11.36,11.08,12.19-1.93,4.43-3.87,7.2-6.38,4.71-6.38,4.71l-3.32,9.14s-9.7-11.63-10.25-16.34,3.88-13,5.54-15a11.16,11.16,0,0,1,3.05-2.77" style="fill:#5e5e5e;stroke:#263238;stroke-linecap:round;stroke-linejoin:round"></path><path d="M298.49,245.45s5.27,0,6.65.83,4.71,6.93,6.65,7.76,1.66,2.77.83,3-4.71-.83-5.54-1.38-4.16-2.22-4.16-2.22,5.55,5.54,6.65,6.65,2.22,2.77,1.11,3.88-5.82,1.11-5.82,1.11a8.91,8.91,0,0,1-3.6,2.49c-1.94.56-5,1.11-7.48-.55s-3.88-5.27-3.88-8.87S298.49,245.45,298.49,245.45Z" style="fill:#fff;stroke:#263238;stroke-linecap:round;stroke-linejoin:round"></path></g><g id="freepik--character-2--inject-171"><path d="M250.59,204s5.78,30.5,7.89,42.51,7,34.46,7,34.46,3.89,16.31,3.38,21.47-2.43,10.74-4.25,12.49-5.63,1.36-6.06.22,1.13-3.18,1.13-3.18-3.53,2.4-4.45.66,1.92-2.83,1.92-2.83-2.88-1.38-2.2-2.69,3.39-1,3.39-1-3.08-5-2.67-9.05,2-9.13,2.08-9.95-8.57-21.71-8.57-21.71-8.67-30.11-12.06-40.32,1.53-20,3.57-21.18S250.59,204,250.59,204Z" style="fill:#fff;stroke:#263238;stroke-linecap:round;stroke-linejoin:round"></path><path d="M263.55,292.58s-3,5.2-1.73,9.17,1.94,5.4,1.83,6.49-2.79,6-2.95,7.67,2.36,1.06,3.94-1,3.12-1.07,3.77-7.59a48.93,48.93,0,0,0-1.11-13.84" style="fill:#fff;stroke:#263238;stroke-linecap:round;stroke-linejoin:round"></path><path d="M265.51,281s-4.92-22.45-7-34.46S250.59,204,250.59,204s-7.83-1.32-9.87-.15-7,11-3.57,21.19,12.06,40.32,12.06,40.32,8.65,20.9,8.57,21.71l8.5-2.72C265.83,282.32,265.51,281,265.51,281Z" style="fill:#25528E;stroke:#263238;stroke-linecap:round;stroke-linejoin:round"></path><path d="M258.69,443.53s14.34,1.34,19.67.34,11,1.33,11.67,3.66-.34,4.67-7.34,7.67-11.66,2.67-20.33,4.67-11.33,3.33-14,2.33-3.67-13-3.67-13Z" style="fill:#fff;stroke:#263238;stroke-linecap:round;stroke-linejoin:round"></path><path d="M258.69,443.53s14.34,1.34,19.67.34,11,1.33,11.67,3.66-.34,4.67-7.34,7.67-11.66,2.67-20.33,4.67-11.33,3.33-14,2.33-3.67-13-3.67-13Z" style="fill:#263238;stroke:#263238;stroke-linecap:round;stroke-linejoin:round"></path><path d="M290,447.53c-.65-2.26-6-4.52-11.21-3.73l1.54,8.73s-10.33,1.67-20.67,4.34a88.19,88.19,0,0,1-13.21,2.36c.51,1.52,1.13,2.69,1.88,3,2.67,1,5.33-.33,14-2.33s13.33-1.67,20.33-4.67S290.69,449.87,290,447.53Z" style="fill:#fff;stroke:#263238;stroke-linecap:round;stroke-linejoin:round"></path><path d="M194,445.87s1.33,5.33,6,6.33,10,5.67,10,8-2.34,3.33-11.34,3.33-14.06.8-18.06-1.54-2.27-12.46-1.6-16.12S194,445.87,194,445.87Z" style="fill:#263238;stroke:#263238;stroke-linecap:round;stroke-linejoin:round"></path><path d="M210,460.2c0-1.3-1.67-3.33-3.95-5.05-2.31.34-5.82,1-7.72,2.05-3,1.67-3,3.33-3,3.33s-8.5,1.77-12.4-.2a25.55,25.55,0,0,1-5-3.44c.2,2.15.93,4.08,2.69,5.1,4,2.34,9.06,1.54,18.06,1.54S210,462.53,210,460.2Z" style="fill:#fff;stroke:#263238;stroke-linecap:round;stroke-linejoin:round"></path><path d="M252.36,274.2s2,10.33,4,24.67,1.67,50.66,1.67,67,.33,67,.33,68.66v4.34s-14.67,6-15.67,6-5-25-8-38.34S230,379.2,230,371.2s-1.34-14.67-1.34-16.33S219,302.53,219,302.53s-8.67,56.34-11,68-13,62.67-13.67,65.67a41.49,41.49,0,0,0-.67,7.33l-14-1.33s-.33-17.33-.66-31.33-1.67-26-.67-35,4-24.67,4.33-26.34-1-39.33-1-43,1-35.33,1-35.33l46,.67Z" style="fill:#263238;stroke:#263238;stroke-linecap:round;stroke-linejoin:round"></path><polygon points="238.69 440.2 243.03 452.87 263.36 443.2 259.69 431.87 238.69 440.2" style="fill:#fff;stroke:#263238;stroke-linecap:round;stroke-linejoin:round"></polygon><polygon points="176.69 437.53 197.69 439.53 197.69 447.53 177.03 448.2 176.69 437.53" style="fill:#fff;stroke:#263238;stroke-linecap:round;stroke-linejoin:round"></polygon><path d="M204.75,167.48s-17.47,4.23-23.39,6.48-7.32,4.79-8.17,8.17,8.45,68.09,9.3,74.85-1.69,16.06,3.1,20.85,28.91,6.67,42.26,6.48c12.8-.19,22.4-2.36,24.94-7.15s1.83-6.94,1.83-17.08-.85-45.08-1.69-58-.57-18.88-5.36-22.26-13.24-12.3-18.31-12.58S208.69,165.23,204.75,167.48Z" style="fill:#25528E;stroke:#263238;stroke-linecap:round;stroke-linejoin:round"></path><polygon points="212.5 206.02 204.4 193.41 196.3 206.02 204.4 218.62 212.5 206.02" style="fill:#fff"></polygon><polygon points="230.96 206.02 222.86 193.41 214.76 206.02 222.86 218.62 230.96 206.02" style="fill:#fff"></polygon><polygon points="249.41 206.02 241.31 193.41 233.22 206.02 241.31 218.62 249.41 206.02" style="fill:#fff"></polygon><polygon points="212.5 233.52 204.4 220.91 196.3 233.52 204.4 246.13 212.5 233.52" style="fill:#fff"></polygon><polygon points="230.96 233.52 222.86 220.91 214.76 233.52 222.86 246.13 230.96 233.52" style="fill:#fff"></polygon><polygon points="249.41 233.52 241.31 220.91 233.22 233.52 241.31 246.13 249.41 233.52" style="fill:#fff"></polygon><polygon points="212.5 261.02 204.4 248.42 196.3 261.02 204.4 273.63 212.5 261.02" style="fill:#fff"></polygon><polygon points="230.96 261.02 222.86 248.42 214.76 261.02 222.86 273.63 230.96 261.02" style="fill:#fff"></polygon><polygon points="249.41 261.02 241.31 248.42 233.22 261.02 241.31 273.63 249.41 261.02" style="fill:#fff"></polygon><path d="M212.07,162s-5.35,3.1-6.2,5.35-3.66,8.17-3.66,8.17l5.35,15.22,8.17-9.87,3.1-1.41,7.61.29,9,11s1.41-9.3,0-16.35-4-9.86-7.05-11S214.61,162,212.07,162Z" style="fill:#fff;stroke:#263238;stroke-linecap:round;stroke-linejoin:round"></path><path d="M210.38,158.08s-.28,9-.28,10.71,11.27,19.44,13.24,17.75,7-15.78,7-15.78l2.25-18Z" style="fill:#fff;stroke:#263238;stroke-linecap:round;stroke-linejoin:round"></path><path d="M206.16,129.06s-3.39-5.92-4.51-1.41.56,9,2.25,8.74S206.16,129.06,206.16,129.06Z" style="fill:#fff;stroke:#263238;stroke-linecap:round;stroke-linejoin:round"></path><path d="M208.13,107.08s-5.64,8.18-5.64,13a16,16,0,0,0,2.26,8.17l6.76-18.88Z" style="fill:#263238;stroke:#263238;stroke-linecap:round;stroke-linejoin:round"></path><path d="M210.38,107.93s-4.22,9.86-4.51,12.68-3.94,20-3.94,25.64,2,7,6.76,9.3,16.34,2.25,20.57,0,7.89-11,7.89-11,8.17-2,7.61-7.05-5.64-2.81-5.64-2.81,3.66-6.77,3.66-12.4-20.56-14.93-23.95-15.5S210.38,107.93,210.38,107.93Z" style="fill:#fff;stroke:#263238;stroke-linecap:round;stroke-linejoin:round"></path><path d="M211.47,98.61c-3.81.48-7.09,1.93-5.6,5.66,2.26,5.63,5.92,8.45,12.68,10.7s14.94,3.1,16.34,5.36-2.81,3.94-1.12,5.35l3.38,2.82s-6.48,19.72-7.05,20.57-6.19.28-7.6-2-.85-6.2-3.67-7-11.83-3.1-12.67-2a17.78,17.78,0,0,0-4.23,7c-1.13,3.95-2,12.68,3.94,14.37s17.75,1.41,20.85-.28,7.05-4.51,8.17-7.89,3.39-12.4,5.64-17.47,8.73-10.71,5.92-18.31-22-16.34-27-16.91A36.67,36.67,0,0,0,211.47,98.61Z" style="fill:#263238;stroke:#263238;stroke-linecap:round;stroke-linejoin:round"></path><path d="M221.05,127.77c-.35,1.28-1.06,2.2-1.58,2s-.67-1.3-.32-2.57,1.06-2.19,1.59-2S221.4,126.5,221.05,127.77Z" style="fill:#263238"></path><path d="M210.49,124.82c-.35,1.27-1.06,2.19-1.59,2s-.67-1.29-.31-2.57,1.06-2.19,1.58-2.05S210.84,123.54,210.49,124.82Z" style="fill:#263238"></path><path d="M220,120.89s4.79-.84,5.92,4.51" style="fill:none;stroke:#263238;stroke-linecap:round;stroke-linejoin:round;stroke-width:2px"></path><path d="M212.35,119.2s-1.69-2-4.79-.28" style="fill:none;stroke:#263238;stroke-linecap:round;stroke-linejoin:round;stroke-width:2px"></path><path d="M214.33,121.74l-1.13,5.91s-7,5.92-5.64,9.3,8.17.56,8.17.56" style="fill:none;stroke:#263238;stroke-linecap:round;stroke-linejoin:round"></path><path d="M212.58,145.82a8.85,8.85,0,0,1-5.9-2.06,1.27,1.27,0,0,1,1.66-1.91c1.71,1.49,4.33,1.85,7.18,1a1.26,1.26,0,0,1,.72,2.42A13,13,0,0,1,212.58,145.82Z" style="fill:#fff;stroke:#263238;stroke-linecap:round;stroke-linejoin:round"></path><path d="M218.65,314.49a75.16,75.16,0,0,0-6.85-15.61c-1.83-2.89-2.11-3.06-4-6l-1.09-1.55-9.56,4.59s2.19,8.79,2.81,11a21.57,21.57,0,0,0,3.71,6l.16.8.6,3.88c.14,1-.39,4,0,5.21s1.7-.25,2-1.79c.2-1.16.42-4.07.52-5.38l.16.06c.17,1.11.48,3.19.59,3.89a14.64,14.64,0,0,0,1.75,4.95c.95,1.35,1.7-.26,1.72-1.75,0-1.2-.62-5.67-.88-7.38l.18,0a42,42,0,0,1,1.79,4.77c.14,1,.62,4.13,1.71,4.71s1.87-.78,1.78-3a62.26,62.26,0,0,0-1.25-7.19H215a15.1,15.1,0,0,1,1.74,3.8c.23,1.46.45,2.92,1.83,2.21S219.15,316.16,218.65,314.49Z" style="fill:#fff;stroke:#263238;stroke-linecap:round;stroke-linejoin:round"></path><path d="M178.54,175.93s-6.2,2-7.89,7.33-3.68,62-2.12,66.59S196.93,298,196.93,298l10.91-5.08L186.17,244l4.49-48.65" style="fill:#25528E;stroke:#263238;stroke-linecap:round;stroke-linejoin:round"></path></g><g id="freepik--character-1--inject-171"><path d="M144.18,121.33s11.31-.09,16.28,6-1.91,14.77-2.72,17.8-5.81,18.41-4.88,25.74,3,8.81,5.6,8.66,1.84,1.24.1,3.77-7.18,3.53-8.54,2.07-3.14-4.82-4.66-8.4-1.51-4.29-.89-15.57,2.75-25.57,1.94-29.37S144.18,121.33,144.18,121.33Z" style="fill:#263238;stroke:#263238;stroke-linecap:round;stroke-linejoin:round"></path><path d="M173.62,225.46s6.66,25.89,9.13,36.1,8,29.23,8,29.23,4.24,13.81,4.09,18.27-1.49,9.37-3,11-4.76,1.49-5.2.53.8-2.8.8-2.8-2.9,2.26-3.79.82,1.5-2.54,1.5-2.54-2.56-1-2.05-2.19,2.86-1.08,2.86-1.08-2.92-4.1-2.8-7.63a77.36,77.36,0,0,1,1.24-8.67c0-.71-8.57-18.19-8.57-18.19s-7.14-25.44-10.62-34-1.77-17.25-.08-18.37S173.62,225.46,173.62,225.46Z" style="fill:#fff;stroke:#263238;stroke-linecap:round;stroke-linejoin:round"></path><path d="M189.66,300.88s-2.27,4.64-1,8,2,4.54,1.93,5.48-2.06,5.34-2.11,6.76,2.09.77,3.33-1.07,2.63-1.09,2.82-6.73a42,42,0,0,0-1.72-11.83" style="fill:#fff;stroke:#263238;stroke-linecap:round;stroke-linejoin:round"></path><path d="M173.62,225.46s-6.81-.7-8.49.42-3.4,9.78.08,18.37c2.44,6,6.67,20.31,9,28.32l3.52-1.29,7.1-1.69c-.78-2.91-1.5-5.7-2.07-8C180.28,251.35,173.62,225.46,173.62,225.46Z" style="fill:#5e5e5e;stroke:#263238;stroke-linecap:round;stroke-linejoin:round"></path><path d="M174.81,286.37s4.79,6.5-1.45,33-14.1,42.21-16.33,48.81a159.41,159.41,0,0,1-10.14,23.67c-4.27,7.86-19.86,34.43-21.69,39a99.75,99.75,0,0,0-3.38,11.23s1.91,2.73,7.74,7.93,13.05,8.45,12.31,10.76-7.76,2.4-13.09,2.22-10.83-5-14.46-6.16-4.67-.16-4.67-.16l-.71,1.31-7-1.57a17.37,17.37,0,0,1,.26-7.66c1.12-3.63,2.4-4.9,5.13-13.5,2.61-8.25,8.27-46.5,11.19-54.07s8.29-18.4,10.5-24.33,6.21-25.8,4.48-33.87-14.64-30.51-10.84-34.38,28.8-3.36,31.45-2.94S174.81,286.37,174.81,286.37Z" style="fill:#263238;stroke:#263238;stroke-linecap:round;stroke-linejoin:round"></path><path d="M129.56,450c-5.83-5.2-7.74-7.93-7.74-7.93s.27-1.15.72-2.81a30.7,30.7,0,0,1-15.25-3.75c-2.66,8.35-3.93,9.64-5,13.23a17.37,17.37,0,0,0-.26,7.66l7,1.57.71-1.31s1-1,4.67.16,9.13,6,14.46,6.16,12.34.09,13.09-2.22S135.38,455.22,129.56,450Z" style="fill:#fff;stroke:#263238;stroke-linecap:round;stroke-linejoin:round"></path><path d="M131.12,451.34l-3.08,4a59.12,59.12,0,0,1-17.44-6.92,64.9,64.9,0,0,0-6.8-3.57,34.49,34.49,0,0,0-1.55,3.95,17.37,17.37,0,0,0-.26,7.66l7,1.57.71-1.31s1-1,4.67.16,9.13,6,14.46,6.16,12.34.09,13.09-2.22C142.55,458.67,136.59,455.78,131.12,451.34Z" style="fill:#25528E;stroke:#263238;stroke-linecap:round;stroke-linejoin:round"></path><path d="M143.69,299.32s4.78,26.18,7,39.6,2.33,29.42,4.29,40.5,10.36,58.72,10.65,59.73,1.3,1,7.6,2.25,19,1.31,21.55,3.74,3.23,3.11-4.6,7.85-26.6,7.43-29.29,8a10.14,10.14,0,0,1-5.32-.52s-5-20.84-6.18-24.22-14.07-27.83-17.1-36.6-4.37-18.83-6-29.89-6.36-18.89-7.28-21.26S101.1,325.9,97.44,315.77s-2.94-31.46-2.94-31.46l47.19,5.27" style="fill:#263238;stroke:#263238;stroke-linecap:round;stroke-linejoin:round"></path><path d="M194.78,445.14c-2.58-2.43-15.26-2.52-21.55-3.74s-7.3-1.24-7.6-2.25c0-.09-.1-.47-.22-1.12-3.11,2-8.53,4.94-13.94,5.76,1.84,7.21,4.1,16.69,4.1,16.69a10.14,10.14,0,0,0,5.32.52c2.69-.58,21.46-3.28,29.29-8S197.37,447.56,194.78,445.14Z" style="fill:#fff;stroke:#263238;stroke-linecap:round;stroke-linejoin:round"></path><path d="M194.78,445.14c-2.11-2-10.92-2.41-17.51-3.16l1,7.93s-15.12,4-24.25,4.2c.89,3.64,1.54,6.37,1.54,6.37l1,3a14.39,14.39,0,0,0,3.07,0,35.81,35.81,0,0,0,5.92-1.71l-.37-1.5c6.71-1.2,19-3.63,25-7.24C198,448.25,197.37,447.56,194.78,445.14Z" style="fill:#25528E;stroke:#263238;stroke-linecap:round;stroke-linejoin:round"></path><path d="M146.23,123.28s6.56,8,8.09,11.58,1,5.92,2.32,7.85,5.13,1.58,5.05,3.94-1.79,4.17-2.05,4.87,1.38,7.82,1.49,11.59-1.62,6.3-4.24,6.92-7.12,1.64-7.12,1.64-1.88,13.83-.09,16.72,7.39,4.25,7.39,4.25,12.93.68,16,8.78.8,25,.87,29.94-1.67,7.48,1.92,19.61,10.52,37.09,10.52,37.09l-12.15,4.06s-20.41,4.72-33.8,3.8-36.32-5.24-42.38-6.85-5.76-3.73-5.76-3.73,9.24-29.59,10.12-41.57-3-28.83-4.23-35.23.81-16.69,4.38-18,14.93-2.79,15.64-2.77,9.77-10.5,8.5-14.55-2.23-24.56-.49-34.39S135.06,119.37,146.23,123.28Z" style="fill:#fff;stroke:#263238;stroke-linecap:round;stroke-linejoin:round"></path><polygon points="149.77 171.67 142.32 172.96 148.99 175.69 149.77 171.67" style="fill:#263238;stroke:#263238;stroke-linecap:round;stroke-linejoin:round"></polygon><path d="M153.38,144c.33,1.59,0,3-.74,3.16s-1.6-1-1.93-2.62,0-3,.75-3.16S153.06,142.44,153.38,144Z" style="fill:#263238"></path><path d="M148.05,139.12s.84-3.74,4.76-1.49" style="fill:none;stroke:#263238;stroke-linecap:round;stroke-linejoin:round"></path><path d="M157.83,156.17a4,4,0,0,1-5.15-.88" style="fill:none;stroke:#263238;stroke-linecap:round;stroke-linejoin:round"></path><path d="M175.81,251c-3.59-12.13-1.85-14.67-1.92-19.61,0-3.18.85-11.29.7-18.83-2.15-2.1-4.37-3.12-6.57-2.56-11.4,2.91-44.52.61-44.52.61L99,212.8c1.58,7.91,4.1,21.09,3.38,31-.88,12-10.12,41.57-10.12,41.57s-.31,2.11,5.76,3.73,29,5.92,42.38,6.85,33.8-3.8,33.8-3.8l12.15-4.06S179.41,263.1,175.81,251Z" style="fill:#fff;stroke:#263238;stroke-linecap:round;stroke-linejoin:round"></path><line x1="165.21" y1="244.25" x2="147.64" y2="253.79" style="fill:none;stroke:#263238;stroke-linecap:round;stroke-linejoin:round"></line><line x1="140.56" y1="251.92" x2="152.11" y2="246.71" style="fill:none;stroke:#263238;stroke-linecap:round;stroke-linejoin:round"></line><path d="M131.87,276.09c2.31-12.64,5.63-41,1.93-56.92-3.29-14.16-14-28.37-16.36-31.32-2.67.28-11.79,1.57-14.93,2.71-3.57,1.29-5.57,11.58-4.38,18s5.1,23.25,4.23,35.23-10.12,41.57-10.12,41.57-.31,2.11,5.76,3.73c4.49,1.19,18.25,3.87,30.52,5.55C129.23,290.61,130.45,283.89,131.87,276.09Z" style="fill:#5e5e5e;stroke:#263238;stroke-linecap:round;stroke-linejoin:round"></path><path d="M167.22,247.61l8.88,43.87,10.23-3.42s-6.92-25-10.52-37.09-1.85-14.67-1.92-19.61,2.15-21.83-.87-29.94-16-8.78-16-8.78-.53-.13-1.32-.39c2.87,5.4,11.38,21.55,14.25,28.85,3.47,8.83,4.81,11,2,16.55S167.22,247.61,167.22,247.61Z" style="fill:#5e5e5e;stroke:#263238;stroke-linecap:round;stroke-linejoin:round"></path><path d="M112.72,188.08S122.86,204.79,125,211s4.5,10.16,4.73,17.23-5.73,30-5.73,30l4.24.14s5.57-32.54,5.23-36.32-12.69-28.45-13.8-30.61a23,23,0,0,1-1.52-3.58Z" style="fill:#25528E;stroke:#263238;stroke-linecap:round;stroke-linejoin:round"></path><path d="M94.49,253.63s33.11,2.53,33.82,2.56,6.07,43.29,6.88,47.09-3.39,9.77-10.76,11.64-28.67-1.68-37.53-4.1-16.78-5-14.8-15.1,8.42-39.74,8.47-41.39S94.49,253.63,94.49,253.63Z" style="fill:#25528E;stroke:#263238;stroke-linecap:round;stroke-linejoin:round"></path><path d="M121.36,312.88a12.61,12.61,0,0,1-2.71.63" style="fill:none;stroke:#263238;stroke-linecap:round;stroke-linejoin:round"></path><path d="M124,258.16s3.74,41.8,2.52,46.73c-.65,2.64-1.13,4.69-2.36,6.14" style="fill:none;stroke:#263238;stroke-linecap:round;stroke-linejoin:round"></path><line x1="118.62" y1="268.86" x2="121.72" y2="269.17" style="fill:none;stroke:#263238;stroke-linecap:round;stroke-linejoin:round"></line><line x1="82.12" y1="265.21" x2="113.38" y2="268.34" style="fill:none;stroke:#263238;stroke-linecap:round;stroke-linejoin:round"></line><line x1="82.81" y1="267.85" x2="95.57" y2="269.33" style="fill:none;stroke:#263238;stroke-linecap:round;stroke-linejoin:round"></line><path d="M109.56,191s-8.43-1.46-15.85,2.06S87.22,211,85.12,217.28,76.55,241,75.21,245.91s5.35,8.66,10.78,8.37,10.58.36,12.52-8.05,9.38-33.83,9.38-33.83" style="fill:#5e5e5e;stroke:#263238;stroke-linecap:round;stroke-linejoin:round"></path><path d="M119.08,229.74s3.77-6.94,5-9,4.07-2,5.5-2.4,4.72-.31,4.21.85a5.68,5.68,0,0,1-2,2.05s5.16.41,6.81.47,1.12,1.68,1.55,2.88-1.23,1.6-1.51,2.77a36.85,36.85,0,0,1-1.61,6.07c-.77,1.62-6.68,2.6-9.07,3.46s-5.94,1.68-5.94,1.68-13.3,8-21.4,12.93c-9.13,5.58-17.7,8.35-21.45,7.75s-6.62-6.34-5.22-12.66c1.16-5.26,4.42-9.34,19.63-9.69,8.25-.19,18-2,20.6-3.31A18.6,18.6,0,0,0,119.08,229.74Z" style="fill:#fff;stroke:#263238;stroke-linecap:round;stroke-linejoin:round"></path><path d="M95.17,247.53a12.75,12.75,0,0,1-.17-10.7l-1.36,0c-15.21.35-18.47,4.43-19.63,9.69-1.4,6.32,1.47,12.06,5.22,12.66,3.48.56,11.15-1.8,19.55-6.63A16.83,16.83,0,0,1,95.17,247.53Z" style="fill:#5e5e5e;stroke:#263238;stroke-linecap:round;stroke-linejoin:round"></path><path d="M146.23,123.28s.91,14.87-4,28.36-9.35,18.75-6.93,24,6.38,6.1,6.38,6.1.68,1-1,3.26-7.88,3.26-7.88,3.26a9.8,9.8,0,0,1-.39,4.47c-.78,2.32-5.81,4.74-5.81,4.74a32.28,32.28,0,0,0-.83-3.32,21,21,0,0,0-2.2-4.55,11.2,11.2,0,0,1-2.71,3.68c-1.7,1.35-10.18,1.53-13.41-.46s-4.72-6.52-4.72-6.52,3.26,1.06,4-1.27.18-5.41-4.3-12.16-4.9-29.12,3.26-40.62,29-15,33.94-14.86A6.52,6.52,0,0,1,146.23,123.28Z" style="fill:#263238;stroke:#263238;stroke-linecap:round;stroke-linejoin:round"></path></g></svg>